

<svg version="1.1" xmlns="http://www.w3.org/2000/svg" xmlns:xlink="http://www.w3.org/1999/xlink" x="0px" y="0px" viewBox="0 0 1000 1000" enable-background="new 0 0 1000 1000" xml:space="preserve">

<g><g transform="translate(0.000000,511.000000) scale(0.100000,-0.100000)"><path d="M4747.2,4818.5c-76-34-133.9-147.9-113.9-223.9c6-28,34-81.9,60-123.9c111.9-169.9,107.9-441.7-22-1121.3c-171.9-891.5-171.9-897.5-175.9-1209.3c-2-337.8,22-453.7,129.9-615.6c64-97.9,143.9-153.9,217.9-153.9c74,0,161.9,60,191.9,131.9c34,82,20,153.9-46,239.9c-123.9,163.9-107.9,447.7,74,1385.2c181.9,931.4,181.9,1291.2-4,1569c-38,58-90,107.9-127.9,123.9C4849.1,4854.5,4831.1,4854.5,4747.2,4818.5z"/><path d="M3733.8,3805.1c-125.9-68-147.9-221.9-50-345.8c111.9-141.9,103.9-287.8-48-759.5c-139.9-437.7-157.9-523.7-159.9-729.6c0-165.9,6-203.9,54-309.8c68-147.9,179.9-265.8,265.8-281.8c119.9-22,247.8,89.9,247.8,217.9c0,26-22,78-50,115.9c-26,38-60,89.9-72,117.9c-38,87.9-8,329.8,72,589.6c42,131.9,97.9,311.8,125.9,399.8c42,129.9,50,203.9,52,399.8c2,227.9,0,245.8-56,355.8C4007.6,3785.1,3859.7,3875.1,3733.8,3805.1z"/><path d="M5722.6,3775.1c-44-40-66-80-72-135.9c-10-68-2-94,56-169.9c63.9-85.9,66-95.9,63.9-269.8c0-159.9-12-213.9-95.9-469.7c-131.9-401.8-171.9-581.7-171.9-769.5c2-183.9,38-303.8,133.9-437.7c117.9-165.9,269.8-193.9,373.8-70c74,85.9,70,185.9-10,293.8c-111.9,153.9-101.9,279.8,64,801.5c197.9,621.6,199.9,873.5,14,1133.3C5966.4,3839.1,5832.5,3873.1,5722.6,3775.1z"/><path d="M9620.2,2827.7c-82-32-2234.6-2196.7-2260.6-2270.6l-22-66H3779.7H221.9l-60-62l-62-60l12-243.8c24-441.7,165.9-937.4,421.7-1463.1C1105.4-2515,2062.8-3514.4,3138.1-4058.1C3318-4148,3376-4186,3338-4186c-235.9,0-341.8-269.8-155.9-393.8l68-46h1527.1c1251.2,0,1539.1,4,1593,28c80,34,141.9,149.9,121.9,227.9c-16,64-105.9,163.9-147.9,163.9c-16,0,96,62,249.9,137.9c1271.2,629.6,2418.5,1956.8,2874.3,3325.9c111.9,331.8,175.9,665.6,179.9,919.4l2,195.9l-66,60l-64,58h-819.5c-451.7,0-819.5,6-819.5,14c0,8,453.7,469.7,1009.4,1025.4C9886,2527.9,9900,2541.9,9900,2621.8c0,95.9-44,163.9-131.9,199.9C9692.1,2853.7,9688.1,2853.7,9620.2,2827.7z M9210.4-22.5c-56-395.8-181.9-775.5-397.8-1215.3C8165.1-2543,6999.8-3586.4,5796.5-3934.2c-339.8-97.9-515.7-121.9-933.4-119.9c-325.8,0-423.7,8-599.6,46c-825.5,175.9-1535.1,577.6-2220.6,1261.2c-483.7,479.7-813.5,933.4-1097.3,1509.1C729.6-802.1,547.7-234.4,545.7,7.4v64h4339.3h4339.3L9210.4-22.5z"/></g></g>
</svg>